PathFileType	4	(X/Y/Z)	C:\Users\Basilio\Documents\Thesis Gigler\squatting_fais\c3dfiles\073\SLS_back_pre5\markers_experimental.trc
DataRate	CameraRate	NumFrames	NumMarkers	Units	OrigDataRate	OrigDataStartFrame	OrigNumFrames
200.000000	200.000000	4	61	mm	200.000000	769	1539
Frame#	Time	FHD			LBHD			RBHD			C7			T10			CLAV			LSHO			LUUPA			LMUPA			LDUPA			LLEP			LMEP			LRAD			LUL			LRFIN			RSHO			RUPA1			RMUPA			RDUPA			RLEP			RMEP			RUL			RUFIN			LASI			RASI			USACR			LSACR			RSACR			LTHI1			LTHI2			LTHI3			LTHI4			LLFC			LTIB1			LTIB2			LTIB3			LTIB4			LLMAL			LMMAL			LHEE			LMT1			LMT2			LMT5			RTHI			RTHI2			RTHI3			RTHI4			RLFC			RMFC			RTIB1			RTIB2			RTIB3			RTIB4			RLMAL			RMMAL			RHEE			RMT1			RMT2			RMT5			LMFC			RRAD			
		X1	Y1	Z1	X2	Y2	Z2	X3	Y3	Z3	X4	Y4	Z4	X5	Y5	Z5	X6	Y6	Z6	X7	Y7	Z7	X8	Y8	Z8	X9	Y9	Z9	X10	Y10	Z10	X11	Y11	Z11	X12	Y12	Z12	X13	Y13	Z13	X14	Y14	Z14	X15	Y15	Z15	X16	Y16	Z16	X17	Y17	Z17	X18	Y18	Z18	X19	Y19	Z19	X20	Y20	Z20	X21	Y21	Z21	X22	Y22	Z22	X23	Y23	Z23	X24	Y24	Z24	X25	Y25	Z25	X26	Y26	Z26	X27	Y27	Z27	X28	Y28	Z28	X29	Y29	Z29	X30	Y30	Z30	X31	Y31	Z31	X32	Y32	Z32	X33	Y33	Z33	X34	Y34	Z34	X35	Y35	Z35	X36	Y36	Z36	X37	Y37	Z37	X38	Y38	Z38	X39	Y39	Z39	X40	Y40	Z40	X41	Y41	Z41	X42	Y42	Z42	X43	Y43	Z43	X44	Y44	Z44	X45	Y45	Z45	X46	Y46	Z46	X47	Y47	Z47	X48	Y48	Z48	X49	Y49	Z49	X50	Y50	Z50	X51	Y51	Z51	X52	Y52	Z52	X53	Y53	Z53	X54	Y54	Z54	X55	Y55	Z55	X56	Y56	Z56	X57	Y57	Z57	X58	Y58	Z58	X59	Y59	Z59	X60	Y60	Z60	X61	Y61	Z61	

770	3.845	39.60596084594727	1265.125854492188	-752.2597045898439	-95.36426544189455	1245.542846679688	-780.8721923828127	-123.8790740966797	1230.583984375	-648.3564453125001	-153.3978881835938	1164.096435546875	-713.8447265625001	-386.8645629882814	940.1667480468752	-747.1829223632814	-76.73852539062501	1029.674682617188	-711.0186157226564	-72.75999450683595	1109.445434570313	-837.8946533203127	-4.754931449890138	1034.557495117188	-940.389343261719	37.23621368408204	1043.641967773438	-914.8032226562502	51.74353027343751	997.4583740234377	-951.726257324219	150.3746795654297	954.916198730469	-953.8966064453127	136.8506164550782	898.8226318359377	-912.4131469726565	401.3647460937501	953.508728027344	-821.215026855469	411.2443847656251	949.7974853515627	-894.9517211914065	483.3341064453126	953.857116699219	-807.5651855468752	-74.78768157958986	1093.764526367188	-581.0501098632814	-12.49441909790039	989.2087402343752	-472.4602355957032	30.13168907165528	1003.234680175781	-489.6966552734376	44.5854835510254	950.6130981445315	-465.0383300781251	133.5688018798828	919.5968017578127	-463.2181396484376	124.2837905883789	866.354431152344	-526.4086914062501	397.6904907226564	939.5158691406252	-508.4866027832032	478.2416076660157	950.2949829101565	-586.8445434570314	-349.4576416015626	705.5250244140626	-855.3267211914065	-342.5297546386719	751.7834472656251	-617.9262695312501	-480.7117614746095	860.5269165039065	-745.2460327148439	-503.526336669922	835.843444824219	-768.7601318359377	-509.3296203613282	846.959411621094	-713.0271606445314	-413.8192138671876	404.377899169922	-892.6013793945315	-379.6968383789063	329.0329895019532	-869.7124023437502	-339.6822204589844	333.5914916992188	-841.5507812500002	-412.6282348632814	280.0661926269532	-858.0342407226565	-426.5707092285157	238.5079345703126	-856.8379516601565	-600.9185180664064	185.255355834961	-807.4810791015627	-636.2222290039064	238.303451538086	-867.413757324219	-645.2256469726564	202.1543426513672	-842.3443603515627	-724.8325195312501	210.1670227050782	-813.3505859375002	-836.3966064453127	276.2810058593751	-851.6774902343752	-815.5112304687502	271.7454528808594	-764.4562988281251	-855.0122070312502	344.8870849609376	-816.1553344726565	-908.7581787109377	135.164306640625	-751.1235961914064	-908.4341430664065	127.8905792236328	-790.4873657226565	-926.8028564453127	159.869369506836	-845.520690917969	-324.2713012695313	603.6873168945314	-548.9184570312501	-259.4136047363282	593.9505615234376	-560.9776000976564	-239.5408325195313	618.9444580078126	-569.4388427734376	-222.7053833007813	522.2037963867189	-583.8844604492189	-129.3919067382813	433.8161926269532	-630.9800415039064	-141.75927734375	443.0801086425782	-755.8497314453126	-167.3248596191407	293.8594360351563	-738.8794555664064	-219.0523834228516	224.7000427246094	-674.0100097656251	-205.5034942626954	218.1685333251954	-718.6273803710939	-250.4579620361329	195.3468780517579	-749.0241088867189	-349.7629394531251	96.42983245849612	-691.6876831054689	-342.5193481445313	126.0209426879883	-779.6441040039065	-430.1799316406251	82.89088439941408	-745.0128173828126	-205.8284454345704	54.19560623168947	-762.2632446289064	-205.8176727294922	52.11927032470705	-720.5222167968751	-248.5729522705079	35.57673645019532	-671.8717651367189	-437.7535400390626	246.3881835937501	-719.8117675781251	386.8848571777345	930.8765869140627	-581.8557128906251	
771	3.85	39.48057174682618	1265.0419921875	-752.2780761718751	-95.38575744628908	1245.361938476563	-780.8183593750002	-123.7836532592774	1230.428466796875	-648.3132934570314	-153.3571166992188	1163.922973632813	-713.7581787109376	-386.795623779297	940.0388183593752	-747.0734863281251	-76.67220306396486	1029.539672851563	-710.9988403320314	-72.69885253906251	1109.276611328125	-837.8709106445315	-4.725559234619142	1034.440795898438	-940.3634033203127	37.23472976684571	1043.5166015625	-914.8045654296877	51.7482147216797	997.3789672851565	-951.7439575195315	150.3834381103516	954.811950683594	-953.8997802734377	136.86376953125	898.605407714844	-912.465026855469	401.3569335937501	953.382019042969	-821.237976074219	411.692596435547	949.8105468750002	-895.1812744140627	483.7451171875001	953.8418579101565	-807.9146118164065	-74.67080688476564	1093.596435546875	-580.9635009765626	-12.33127975463868	989.0689086914065	-472.4857788085939	30.29864311218262	1003.089416503906	-489.6789550781251	44.74177932739259	950.5081176757815	-465.0039062500001	133.7669067382813	919.4512939453127	-463.2652893066407	124.4682235717774	866.174011230469	-526.4175415039064	397.8448486328126	939.4383544921877	-508.5946350097657	478.3404235839845	950.1975708007815	-586.9788208007814	-349.5271301269532	705.5098266601564	-855.2302856445315	-342.4703063964844	751.7583007812501	-617.8308715820314	-480.7588806152345	860.4389648437502	-745.1058349609376	-503.5725708007814	835.795837402344	-768.5435791015627	-509.3665771484376	846.8905029296877	-712.8348999023439	-413.8486633300782	404.3052673339845	-892.601501464844	-379.6974487304688	328.9696350097657	-869.6380615234377	-339.6250000000001	333.5203552246094	-841.4416503906252	-412.6057739257814	279.9413452148438	-857.8875122070315	-426.4422912597657	238.4325256347657	-856.7570800781252	-600.8139038085939	185.1615142822266	-807.2795410156252	-636.1954345703126	238.173812866211	-867.3408203125002	-645.2145996093751	202.0875091552735	-842.2190551757815	-724.7977294921876	210.1257934570313	-813.109802246094	-836.3668212890627	276.2018127441407	-851.3347167968752	-815.4332275390627	271.7500915527344	-764.1833496093751	-854.9074707031252	344.8294067382813	-815.9094848632815	-908.8042602539065	135.0507049560547	-750.5964355468751	-909.2822265625002	127.4454650878907	-789.4696044921877	-926.7000122070315	159.9049835205078	-845.3247070312502	-324.2234191894532	603.6431884765626	-548.7725219726564	-259.3953857421876	593.8924560546876	-560.8588867187501	-239.4671936035157	618.8616943359376	-569.3500976562501	-222.6532135009766	522.1503906250001	-583.8137817382814	-129.3491516113282	433.7920837402345	-630.9352416992189	-141.7915649414063	443.085418701172	-755.7376098632814	-167.3600463867188	293.8358459472657	-738.8629760742189	-219.0334167480469	224.6962280273438	-673.9500732421876	-205.4927520751954	218.1685485839844	-718.6173095703126	-250.378890991211	195.3664093017579	-748.9833374023439	-349.7681579589844	96.41619873046878	-691.6882934570314	-342.5084533691407	126.0748138427735	-779.5957031250002	-430.181854248047	82.86404418945314	-744.9609985351564	-205.8220520019532	54.19261550903322	-762.3152465820314	-205.8024902343751	52.13240814208986	-720.4660034179689	-248.5778045654297	35.56461334228516	-671.8684082031251	-437.707000732422	246.2785797119141	-719.7058715820314	386.9910278320314	930.8613891601565	-582.1104125976564	
772	3.855	39.58749389648438	1264.894287109375	-752.2429199218751	-95.38706207275392	1245.215454101563	-780.712829589844	-123.7441329956055	1230.298095703125	-648.1680908203126	-153.27685546875	1163.7431640625	-713.6628417968751	-386.7827453613282	939.9704589843752	-746.9226074218751	-76.57845306396486	1029.418090820313	-710.8858032226564	-72.67258453369142	1109.164428710938	-837.8057250976565	-4.691861152648927	1034.35009765625	-940.3657836914065	37.31718444824219	1043.40234375	-914.770935058594	51.70754623413087	997.2279052734377	-951.6633300781252	150.2212829589844	954.7133789062502	-953.8931884765627	136.8549499511719	898.4918212890627	-912.5864257812502	401.4107055664064	953.2832641601565	-821.286560058594	411.2998046875001	949.5847167968752	-895.0552978515627	483.4518432617189	953.6719970703127	-807.7539672851565	-74.52474975585939	1093.429321289063	-580.9875488281251	-12.16709613800049	988.943054199219	-472.4326171875001	30.45688247680665	1002.943176269531	-489.6813964843751	44.90813446044923	950.3716430664065	-465.0014953613282	133.9375915527344	919.3135986328127	-463.2572631835939	124.6527786254883	866.005798339844	-526.4124755859376	397.9673767089845	939.333923339844	-508.6940002441407	478.490203857422	950.0921630859377	-587.1947021484376	-349.6240234375001	705.4059448242189	-855.0269775390627	-342.4366149902344	751.7553100585939	-617.6640625000001	-480.8071594238282	860.3814086914065	-744.8999023437501	-503.6242065429689	835.7357177734377	-768.3374023437502	-509.3265991210939	846.8381347656252	-712.6889648437501	-413.8557739257814	404.1162719726564	-892.520690917969	-379.6192321777344	328.8701477050782	-869.5374755859377	-339.5925292968751	333.4678955078126	-841.3386840820315	-412.484100341797	279.8777465820313	-857.8164062500002	-426.3641662597657	238.3274993896485	-856.6245117187502	-600.7675781250001	185.1010284423828	-806.9155883789065	-636.0601196289064	238.1375885009766	-867.2041015625002	-645.2339477539064	202.0086822509766	-842.0600585937502	-724.7182617187501	210.0612945556641	-812.8173828125002	-836.2987060546877	276.0946044921876	-851.040222167969	-815.302673339844	271.7378234863282	-763.8770141601564	-854.8236083984377	344.7958068847657	-815.692565917969	-908.4824829101565	134.9019317626953	-751.0912475585939	-908.481628417969	127.8366012573242	-789.808532714844	-926.641052246094	159.8292541503907	-844.9070434570315	-324.1528015136719	603.5751953125001	-548.6453247070314	-259.3621215820313	593.8510131835939	-560.7453613281251	-239.4365234375001	618.8179931640626	-569.2208251953126	-222.5802764892579	522.1062622070314	-583.7194824218751	-129.2969665527344	433.7758789062501	-630.8306274414064	-141.7453918457032	443.0957641601564	-755.6921386718751	-167.3214416503907	293.8496093750001	-738.8474121093751	-219.0486450195313	224.6833801269532	-673.9127807617189	-205.5164031982422	218.1665039062501	-718.4947509765626	-250.4061431884766	195.3744201660157	-748.9755249023439	-349.7810668945313	96.392692565918	-691.6607666015626	-342.4817199707032	126.0896224975586	-779.569519042969	-430.1814880371095	82.8609085083008	-745.0131835937501	-205.8517150878907	54.18579864501955	-762.2774047851564	-205.8423156738282	52.10286331176759	-720.4902343750001	-248.575912475586	35.53157043457032	-671.8623046875001	-437.6175537109376	246.223373413086	-719.6484375000001	387.1468505859376	930.751159667969	-582.4518432617189	
773	3.86	39.61478424072266	1264.82958984375	-752.1819458007814	-95.37129974365236	1245.055908203125	-780.6297607421877	-123.70166015625	1230.095947265625	-648.0812377929689	-153.1879425048828	1163.579833984375	-713.5805664062501	-386.8185424804689	939.8944091796877	-746.7894897460939	-76.50628662109376	1029.250610351563	-710.8520507812501	-72.64583587646486	1109.035034179688	-837.771179199219	-4.789056777954102	1034.251953125	-940.3377685546877	37.26586914062501	1043.299194335938	-914.6939697265627	51.7739715576172	997.1956787109377	-951.6412353515627	150.3129425048828	954.6046142578127	-953.953796386719	136.9408111572266	898.3035278320315	-912.5989379882815	401.4112548828126	953.2122802734377	-821.3082275390627	411.2905883789064	949.4920654296877	-895.1181640625002	483.4541320800782	953.5622558593752	-807.8267211914065	-74.42173004150392	1093.232788085938	-580.8708496093751	-12.00108909606934	988.7592773437502	-472.3941650390626	30.60239791870118	1002.81591796875	-489.6461181640626	45.1006088256836	950.2351074218752	-465.023406982422	134.1485900878907	919.1713867187502	-463.3400878906251	124.8017654418946	865.8183593750002	-526.3796386718751	398.1185607910157	939.2271728515627	-508.8585510253907	478.6077575683595	949.9869384765627	-587.3639526367189	-349.6843566894532	705.3243408203126	-854.8872680664065	-342.4649963378907	751.6155395507814	-617.5136108398439	-480.7692871093751	860.3109130859377	-744.7505493164064	-503.6502380371095	835.6544189453127	-768.1751708984377	-509.3692626953126	846.7662353515627	-712.4835815429689	-413.7682189941407	404.2566223144532	-892.228454589844	-379.5254211425782	328.8496093750001	-869.4590454101565	-339.5774230957032	333.4356994628907	-841.2788696289065	-412.4654541015626	279.7794494628907	-857.6939697265627	-426.3513183593751	238.2609405517579	-856.574157714844	-600.6355590820314	185.047607421875	-806.708923339844	-636.0164184570314	238.1910400390626	-866.997497558594	-645.1069335937501	201.9781188964844	-841.8323974609377	-724.6408081054689	210.0383453369141	-812.593200683594	-836.2487792968752	276.0677185058594	-850.821472167969	-815.1779785156252	271.7517089843751	-763.6608886718751	-854.6992187500002	344.7832946777344	-815.4321899414065	-908.427917480469	134.8795471191407	-750.7752075195314	-908.480407714844	127.7859268188477	-789.5241699218752	-926.604919433594	159.8095245361328	-844.510192871094	-324.0799560546876	603.5112915039064	-548.4639282226564	-259.3059387207032	593.8200683593751	-560.6766967773439	-239.3790435791016	618.8126831054689	-569.0689697265626	-222.562240600586	522.0681152343751	-583.6337890625001	-129.2561798095703	433.7410888671876	-630.7936401367189	-141.7757720947266	443.0688476562501	-755.6337280273439	-167.3032989501953	293.8518676757813	-738.7660522460939	-219.0753784179688	224.7093963623047	-673.8294677734376	-205.625473022461	218.1328735351563	-718.7001953125001	-250.4142456054688	195.3820343017579	-748.9097900390626	-349.7724609375001	96.36927032470706	-691.5999755859376	-342.4912719726563	126.107162475586	-779.510681152344	-430.1885986328126	82.9031219482422	-744.9150390625001	-205.8558807373047	54.21462249755861	-762.2773437500001	-205.8311004638672	52.06008911132814	-720.5003051757814	-248.5800476074219	35.55041122436524	-671.8684692382814	-437.5617980957032	246.1470031738282	-719.5372314453126	387.305145263672	930.6577758789065	-582.6299438476564	
